<?xml version="1.0" standalone="no"?>
<!DOCTYPE svg PUBLIC "-//W3C//DTD SVG 20010904//EN"
 "http://www.w3.org/TR/2001/REC-SVG-20010904/DTD/svg10.dtd">
<svg version="1.0" xmlns="http://www.w3.org/2000/svg"
 width="512.000000pt" height="512.000000pt" viewBox="0 0 512.000000 512.000000"
 preserveAspectRatio="xMidYMid meet">
<metadata>
Created by potrace 1.14, written by Peter Selinger 2001-2017
</metadata>
<g transform="translate(0.000000,512.000000) scale(0.100000,-0.100000)"
fill="#000000" stroke="none">
<path d="M3056 5089 c-25 -19 -26 -25 -26 -109 0 -84 1 -90 26 -109 30 -24 43
-26 77 -10 34 15 47 49 47 119 0 70 -13 104 -47 119 -34 16 -47 14 -77 -10z"/>
<path d="M2466 4929 c-39 -31 -35 -71 17 -149 36 -56 47 -65 76 -68 40 -4 81
29 81 66 0 32 -65 149 -90 162 -29 15 -55 12 -84 -11z"/>
<path d="M3648 4931 c-13 -11 -39 -49 -57 -84 -30 -60 -32 -67 -19 -93 15 -33
54 -50 91 -40 34 8 100 117 101 165 0 61 -66 91 -116 52z"/>
<path d="M2985 4683 c-176 -24 -359 -123 -485 -260 -276 -302 -288 -747 -28
-1068 35 -43 76 -95 91 -116 l28 -39 -599 0 -599 0 -32 161 c-17 89 -39 175
-47 193 -36 70 -117 135 -192 151 -21 4 -36 15 -42 30 -16 42 -69 92 -120 114
-49 21 -62 22 -329 19 l-278 -3 -49 -30 c-30 -19 -60 -49 -79 -79 -26 -43 -30
-59 -30 -121 0 -62 4 -78 30 -121 19 -30 49 -60 79 -79 l49 -30 278 -3 c267
-3 280 -2 329 19 50 21 120 89 120 116 0 40 93 -29 104 -78 17 -71 436 -2255
436 -2269 0 -13 -11 -20 -37 -25 -89 -16 -170 -81 -215 -173 -28 -57 -33 -77
-33 -142 0 -65 5 -85 33 -142 33 -68 82 -118 148 -151 49 -25 146 -37 302 -37
l142 0 -30 -42 c-92 -126 -69 -303 51 -398 62 -49 108 -64 189 -64 172 0 300
140 288 313 -5 71 -25 120 -66 164 l-26 27 616 0 617 0 -34 -50 c-101 -150
-43 -351 124 -432 68 -33 178 -31 246 4 108 57 165 147 165 263 0 73 -19 131
-61 183 l-21 27 202 5 c197 5 202 6 221 29 28 35 25 85 -7 110 l-27 21 -1391
0 c-1335 0 -1393 1 -1432 19 -63 29 -89 72 -89 151 0 79 26 122 89 151 39 18
95 19 1341 19 1421 0 1363 -2 1465 57 77 45 148 120 185 197 31 63 53 160 196
846 130 627 160 785 155 828 -6 68 -50 147 -105 189 -81 62 -89 63 -673 63
l-529 0 15 28 c8 15 37 53 65 85 140 159 206 315 218 509 25 413 -258 776
-665 854 -69 13 -198 16 -267 7z m253 -159 c42 -8 115 -34 161 -56 68 -32 101
-57 171 -127 72 -71 95 -101 129 -172 55 -114 74 -207 68 -329 -8 -166 -63
-295 -189 -439 -31 -35 -73 -94 -94 -132 l-39 -69 -142 0 -143 0 0 138 1 137
105 85 c59 47 112 94 120 105 20 28 17 65 -8 92 -38 41 -68 31 -183 -62 -57
-47 -108 -85 -112 -85 -4 0 -27 17 -52 38 -134 112 -163 132 -190 132 -40 0
-73 -39 -69 -81 3 -29 19 -47 121 -132 l117 -98 0 -134 0 -135 -127 0 -128 0
-33 64 c-18 35 -64 101 -103 147 -38 46 -83 107 -99 134 -67 117 -98 275 -79
409 21 155 82 277 195 392 55 56 91 81 165 118 149 74 281 92 437 60z m1472
-1499 c36 -18 60 -62 60 -107 0 -45 -305 -1517 -324 -1562 -22 -53 -95 -126
-151 -152 l-50 -24 -1232 0 c-789 0 -1233 3 -1233 10 0 13 -339 1810 -346
1833 -5 16 77 17 1621 17 1434 0 1629 -2 1655 -15z"/>
<path d="M2113 2729 c-50 -10 -83 -36 -104 -82 -17 -39 -19 -72 -19 -498 0
-455 0 -456 23 -499 31 -58 76 -82 145 -77 43 3 59 10 88 37 19 19 39 51 45
72 6 24 9 205 7 490 -3 447 -3 454 -25 488 -36 57 -96 83 -160 69z"/>
<path d="M2761 2729 c-45 -9 -82 -38 -103 -80 -16 -31 -18 -76 -18 -499 0
-423 2 -468 18 -500 51 -103 201 -108 262 -8 19 32 20 52 20 506 0 509 1 500
-53 550 -30 29 -80 41 -126 31z"/>
<path d="M3400 2729 c-22 -5 -49 -23 -72 -48 l-38 -40 0 -483 c0 -464 1 -484
20 -516 59 -97 201 -95 257 4 23 39 23 41 23 504 0 423 -2 468 -18 499 -31 63
-101 95 -172 80z"/>
<path d="M4053 2729 c-50 -10 -83 -36 -104 -82 -17 -39 -19 -72 -19 -496 0
-436 1 -456 20 -495 31 -62 63 -81 137 -81 57 0 65 3 98 35 19 19 40 51 46 72
6 24 9 205 7 490 -3 447 -3 454 -25 488 -36 57 -96 83 -160 69z"/>
<path d="M2036 4499 c-29 -23 -36 -73 -13 -101 22 -27 119 -79 150 -80 33 -1
77 39 77 71 0 30 -35 66 -98 99 -70 38 -81 39 -116 11z"/>
<path d="M4038 4479 c-48 -28 -70 -48 -74 -66 -10 -39 7 -75 43 -90 29 -11 37
-10 90 18 101 52 128 105 78 154 -33 34 -59 31 -137 -16z"/>
</g>
</svg>
